# xmcd
#
# Track frame offsets:
#	150
#	11326
#	24970
#	36728
#	47492
#	54795
#	70123
#	83309
#	93147
#	105952
#	114253
#	124433
#	138372
#	149333
#	165889
#	175604
#	185301
#	194906
#	209292
#	221743
#	239059
#	250835
#	268598
#	280163
#	297446
#
# Disc length: 4053 seconds
#
# Revision: 2
# Processed by: cddbd v1.5.1PL2 Copyright (c) Steve Scherf et al.
# Submitted via: EasyCDDAExtractor 9.1.0.1
#
DISCID=5d0fd319
DTITLE=Snooks Eaglin - New Orleans Street Singer
DYEAR=2005
DGENRE=Blues
TTITLE0=Looking For A Woman
TTITLE1=Walking Blues
TTITLE2=Careless Love
TTITLE3=Saint James Infirmary
TTITLE4=High Society
TTITLE5=I Got My Questionairre
TTITLE6=Let Me Go Home, Whiskey
TTITLE7=Mama, Don't Tear My Clothes
TTITLE8=Trouble In Mind
TTITLE9=The Lonesome Road
TTITLE10=Helping Hand (A Thousand Miles From Home)
TTITLE11=One Room Country Shack
TTITLE12=Who's Been Foolin' You
TTITLE13=Drifting Blues
TTITLE14=Sophisticated Blues
TTITLE15=Come Back, Baby
TTITLE16=Rock Island Line
TTITLE17=See See Rider
TTITLE18=One Scotch, One Bourbon, One Beer
TTITLE19=Mean Old World
TTITLE20=Mean Old Frisco
TTITLE21=Every Day I Have The Blues
TTITLE22=Careless Love 2
TTITLE23=Drifting Blues 2
TTITLE24=The Lonesome Road 2
EXTD=
EXTT0=
EXTT1=
EXTT2=
EXTT3=
EXTT4=
EXTT5=
EXTT6=
EXTT7=
EXTT8=
EXTT9=
EXTT10=
EXTT11=
EXTT12=
EXTT13=
EXTT14=
EXTT15=
EXTT16=
EXTT17=
EXTT18=
EXTT19=
EXTT20=
EXTT21=
EXTT22=
EXTT23=
EXTT24=
PLAYORDER=
